General                          : ChattChitto RG - Movies [R2L]
==========
Complete name                    : American History X 1998 720p BDRip H264 [ChattChitto RG]
Format                           : MPEG-4
Format profile                   : Base Media
Codec ID                         : isom
File size                        : 2.21 GiB
Duration                         : 1h 58mn
Overall bit rate                 : 2 660 Kbps
Encoded date                     : UTC 2011-02-10 01:38:58

Video
==========
ID                               : 1
Format                           : AVC
Format/Info                      : Advanced Video Codec
Format profile                   : High@L4.0
Format settings, CABAC           : Yes
Format settings, ReFrames        : 4 frames
Codec ID                         : avc1
Codec ID/Info                    : Advanced Video Coding
Duration                         : 1h 58mn
Bit rate mode                    : Variable
Bit rate                         : 2 300 Kbps
Maximum bit rate                 : 16.3 Mbps
Width                            : 1 280 pixels
Height                           : 720 pixels
Display aspect ratio             : 16:9
Frame rate mode                  : Constant
Frame rate                       : 23.976 fps
Resolution                       : 24 bits
Colorimetry                      : 4:2:0
Scan type                        : Progressive
Bits/(Pixel*Frame)               : 0.104
Stream size                      : 1.91 GiB (86%)
Writing library                  : x264 core 84 r1400M 20fa784
Encoded date                     : UTC 2011-02-09 22:05:36

Audio
==========
ID                               : 2
Format                           : AAC
Format/Info                      : Advanced Audio Codec
Format version                   : Version 4
Format profile                   : LC
Format settings, SBR             : No
Codec ID                         : 40
Duration                         : 1h 58mn
Bit rate mode                    : Variable
Bit rate                         : 352.8 Kbps
Maximum bit rate                 : 440 Kbps
Channel(s)                       : 6 channels
Channel positions                : Front: L C R, Rear: L R, LFE
Sampling rate                    : 48.0 KHz
Resolution                       : 16 bits
Stream size                      : 303 MiB (13%)
Encoded date                     : UTC 2011-02-10 01:40:13

Subtitles                        : English


----------------------------------------------------
IMDB Link: http://www.imdb.com/title/tt0120586/
----------------------------------------------------



Screen Shots:
==============    
http://bayimg.com/EaDPhAadm 
http://bayimg.com/fAdpCaadM 
http://bayimg.com/FaDPEAaDm 
http://bayimg.com/FAdPgaADM 
http://bayimg.com/FAdpIaAdm



ScreenShots Comparison:
=========================  
http://screenshotcomparison.com/comparison/27432



Plot:
======
Derek Vinyard is dangerous, a coiled fury of hate who leads a neo-Nazi gang. But time and events start to change him. He reassesses his ways while doing time for manslaughter and emerges from prison eager to keep his younger brother (Edward Furlong) from falling victim to the thug cycle of violence and payback. It may be too late.



Release Info:
==============
original name .... : American History X 1998 720p BDRip H264 [ChattChitto RG]
ripper.............: Recalled2Life (R2L)
encoder............: Recalled2Life (R2L)
video codec........: H264/.MP4
video bitrate......: 2300 Kbps
audio codec........: AAC-LC
aspect ratio.......: 16:9
resolution.........: 1280 x 720
genre..............: Crime | Drama
runtime............: 1h 58mn
language...........: English
rating.............: R
subtitles..........: English
sample.............: Yes [13.3 MB]
2ch Audio..........: 2ch Audio for XBox Viewers
Compatibility .....: XBox | PS3 | WD Live



Source:
========
American.History.X.1998.Blu-ray.1080p.VC1.TrueHD5.1 [26.7 GB]- R2L Welcome!



Notes:
=======
ChattChitto RG Encourages Burning this Film with ConvertXtoDVD and Playing with VLC media player.
XBox 360 | PS3 | WD Live - Compatible 
Enhanced for your viewing pleasure ;)